{"title":"CNN Special Report The Great Prison Escape HDTV EN-SUB x264-W4F","uid":12056279,"size":183927854,"categoryP":"video","categoryS":"tv_shows","magnet":"?xt=urn:btih:88ff253ef08a8b940469ae91d3cfdcf39cff325c&amp;dn=CNN+Special+Report+The+Great+Prison+Escape+HDTV+EN-SUB+x264-W4F&amp;tr=udp%3A%2F%2Ftracker.openbittorrent.com%3A80&amp;tr=udp%3A%2F%2Fopen.demonii.com%3A1337&amp;tr=udp%3A%2F%2Ftracker.coppersurfer.tk%3A6969&amp;tr=udp%3A%2F%2Fexodus.desync.com%3A6969","seeders":0,"leechers":0,"uploader":"Mulva1989","files":2,"time":1435134640,"description":"CNN Special Report The Great Prison Escape HDTV EN-SUB x264-W4F\n\nCNN's Randi Kaye investigates the bold New York prison escape. \n\nScreens @ &lt;a href=&quot;\nhttps://yuq.me/users/50/321/YFAMwEbk46.jpg&quot; rel=&quot;nofollow&quot; target=&quot;_NEW&quot;&gt;\nhttps://yuq.me/users/50/321/YFAMwEbk46.jpg&lt;/a&gt; &lt;a href=&quot;\nhttps://yuq.me/users/50/321/ilwIEF6mn8.jpg&quot; rel=&quot;nofollow&quot; target=&quot;_NEW&quot;&gt;\nhttps://yuq.me/users/50/321/ilwIEF6mn8.jpg&lt;/a&gt;\n\nFormat : MPEG-4\nFormat profile : Base Media\nCodec ID : isom\nFile size : 175 MiB\nDuration : 23mn 4s\nOverall bit rate mode : Variable\nOverall bit rate : 1 063 Kbps\nEncoded date : UTC 2015-06-24 01:58:48\nTagged date : UTC 2015-06-24 01:58:48\n\nVideo\nID : 1\nFormat : AVC\nFormat/Info : Advanced Video Codec\nFormat profile : &lt;a class=&quot;__cf_email__&quot; href=&quot;/cdn-cgi/l/email-protection&quot; data-cfemail=&quot;82caebe5eac2ceb1acb3&quot;&gt;[email&amp;#160;protected]&lt;/a&gt;&lt;script data-cfhash='f9e31' type=&quot;text/javascript&quot;&gt;\n/* &lt;![CDATA[ */!function(){try{var t=&quot;currentScript&quot;in document?document.currentScript:function(){for(var t=document.getElementsByTagName(&quot;script&quot;),e=t.length;e--;)if(t[e].getAttribute(&quot;data-cfhash&quot;))return t[e]}();if(t&amp;&amp;t.previousSibling){var e,r,n,i,c=t.previousSibling,a=c.getAttribute(&quot;data-cfemail&quot;);if(a){for(e=&quot;&quot;,r=parseInt(a.substr(0,2),16),n=2;a.length-n;n+=2)i=parseInt(a.substr(n,2),16)^r,e+=String.fromCharCode(i);e=document.createTextNode(e),c.parentNode.replaceChild(e,c)}t.parentNode.removeChild(t);}}catch(u){}}()/* ]]&gt; */&lt;/script&gt;\nFormat settings, CABAC : Yes\nFormat settings, ReFrames : 5 frames\nCodec ID : avc1\nCodec ID/Info : Advanced Video Coding\nDuration : 23mn 3s\nBit rate : 944 Kbps\nMaximum bit rate : 5 517 Kbps\nWidth : 720 pixels\nHeight : 404 pixels\nDisplay aspect ratio : 16:9\nFrame rate mode : Constant\nFrame rate : 29.970 fps\nColor space : YUV\nChroma subsampling : 4:2:0\nBit depth : 8 bits\nScan type : Progressive\nBits/(Pixel*Frame) : 0.108\nStream size : 156 MiB (89%)\nWriting library : x264 core 146 r2538 121396c\nEncoding settings : cabac=1 / ref=5 / deblock=1:0:0 / analyse=0x3:0x113 / me=umh / subme=8 / psy=1 / psy_rd=1.00:0.00 / mixed_ref=1 / me_range=16 / chroma_me=1 / trellis=1 / 8x8dct=1 / cqm=0 / deadzone=21,11 / fast_pskip=1 / chroma_qp_offset=-2 / threads=12 / lookahead_threads=2 / sliced_threads=0 / nr=0 / decimate=1 / interlaced=0 / bluray_compat=0 / constrained_intra=0 / bframes=3 / b_pyramid=2 / b_adapt=2 / b_bias=0 / direct=3 / weightb=1 / open_gop=0 / weightp=2 / keyint=250 / keyint_min=25 / scenecut=40 / intra_refresh=0 / rc_lookahead=50 / rc=crf / mbtree=1 / crf=21.0 / qcomp=0.60 / qpmin=0 / qpmax=69 / qpstep=4 / ip_ratio=1.40 / aq=1:1.00\nEncoded date : UTC 2015-06-24 01:58:48\nTagged date : UTC 2015-06-24 01:59:04\nMatrix coefficients : BT.709\nColor range : Limited\n\nAudio\nID : 2\nFormat : AAC\nFormat/Info : Advanced Audio Codec\nFormat profile : LC\nCodec ID : 40\nDuration : 23mn 3s\nBit rate mode : Variable\nBit rate : 115 Kbps\nMaximum bit rate : 147 Kbps\nChannel(s) : 2 channels\nChannel positions : Front: L R\nSampling rate : 48.0 KHz\nCompression mode : Lossy\nStream size : 19.0 MiB (11%)\nLanguage : English\nEncoded date : UTC 2015-06-24 01:59:03\nTagged date : UTC 2015-06-24 01:59:04\n\nText\nID : 3\nFormat : Timed Text\nCodec ID : tx3g\nDuration : 23mn 4s\nBit rate mode : Variable\nBit rate : 225 bps\nStream size : 38.1 KiB (0%)\nLanguage : English\nEncoded date : UTC 2015-06-24 01:59:04\nTagged date : UTC 2015-06-24 01:59:04","torrent":{"xt":"urn:btih:88ff253ef08a8b940469ae91d3cfdcf39cff325c","amp;dn":"CNN+Special+Report+The+Great+Prison+Escape+HDTV+EN-SUB+x264-W4F","amp;tr":["udp%3A%2F%2Ftracker.openbittorrent.com%3A80","udp%3A%2F%2Fopen.demonii.com%3A1337","udp%3A%2F%2Ftracker.coppersurfer.tk%3A6969","udp%3A%2F%2Fexodus.desync.com%3A6969"],"infoHash":"88ff253ef08a8b940469ae91d3cfdcf39cff325c","infoHashBuffer":{"type":"Buffer","data":[136,255,37,62,240,138,139,148,4,105,174,145,211,207,220,243,156,255,50,92]},"announce":[],"urlList":[]}}